<?xml version="1.0" encoding="UTF-8" standalone="no"?>
<!-- Generator: Adobe Illustrator 16.0.0, SVG Export Plug-In . SVG Version: 6.00 Build 0)  -->

<svg
   xmlns:dc="http://purl.org/dc/elements/1.1/"
   xmlns:cc="http://creativecommons.org/ns#"
   xmlns:rdf="http://www.w3.org/1999/02/22-rdf-syntax-ns#"
   xmlns:svg="http://www.w3.org/2000/svg"
   xmlns="http://www.w3.org/2000/svg"
   xmlns:sodipodi="http://sodipodi.sourceforge.net/DTD/sodipodi-0.dtd"
   xmlns:inkscape="http://www.inkscape.org/namespaces/inkscape"
   version="1.1"
   id="Capa_1"
   x="0px"
   y="0px"
   width="407.479px"
   height="407.479px"
   viewBox="0 0 407.479 407.479"
   style="enable-background:new 0 0 407.479 407.479;"
   xml:space="preserve"
   inkscape:version="0.48.4 r9939"
   sodipodi:docname="crane.svg"><metadata
     id="metadata47"><rdf:RDF><cc:Work
         rdf:about=""><dc:format>image/svg+xml</dc:format><dc:type
           rdf:resource="http://purl.org/dc/dcmitype/StillImage" /><dc:title /></cc:Work></rdf:RDF></metadata><defs
     id="defs45" /><sodipodi:namedview
     pagecolor="#ffffff"
     bordercolor="#666666"
     borderopacity="1"
     objecttolerance="10"
     gridtolerance="10"
     guidetolerance="10"
     inkscape:pageopacity="0"
     inkscape:pageshadow="2"
     inkscape:window-width="1920"
     inkscape:window-height="1030"
     id="namedview43"
     showgrid="false"
     inkscape:zoom="0.57917095"
     inkscape:cx="-372.94689"
     inkscape:cy="203.7395"
     inkscape:window-x="0"
     inkscape:window-y="0"
     inkscape:window-maximized="1"
     inkscape:current-layer="Capa_1" /><g
     id="g3"
     style="fill:#e08d1b;fill-opacity:1"><g
       id="g5"
       style="fill:#e08d1b;fill-opacity:1"><path
         d="M392.479,356.621H105.384V182.989h3.754c5.522,0,10-4.477,10-10v-6.428l150.644-91.397v99.716h-25.248    c-3.866,0-7,3.134-7,7v42.603c0,3.866,3.134,7,7,7h64.496c3.865,0,7-3.134,7-7V181.88c0-3.866-3.135-7-7-7h-25.248V64.857    l19.508-14.363c1.791-1.319,2.85-3.412,2.85-5.637v-17c0-2.441-1.271-4.706-3.355-5.977c-2.084-1.27-4.68-1.364-6.85-0.245    L88.901,128.322H57.472c-5.523,0-10,4.477-10,10v34.667c0,5.523,4.477,10,10,10h6.622v173.632H15c-8.284,0-15,6.716-15,15    s6.716,15,15,15h377.479c8.285,0,15-6.716,15-15S400.762,356.621,392.479,356.621z"
         id="path7"
         style="fill:#e08d1b;fill-opacity:1" /><path
         d="M166.765,268.826c-5.099,0-9.232,4.134-9.232,9.232v56.19c0,5.101,4.133,9.233,9.232,9.233h85.067    c5.1,0,9.234-4.133,9.234-9.233V278.06c0-5.099-4.135-9.232-9.234-9.232L166.765,268.826L166.765,268.826z"
         id="path9"
         style="fill:#e08d1b;fill-opacity:1" /><path
         d="M279.533,278.06v56.191c0,5.1,4.133,9.232,9.232,9.232h85.066c5.1,0,9.234-4.133,9.234-9.232V278.06    c0-5.099-4.135-9.232-9.234-9.232h-85.066C283.666,268.826,279.533,272.961,279.533,278.06z"
         id="path11"
         style="fill:#e08d1b;fill-opacity:1" /></g></g><g
     id="g13" /><g
     id="g15" /><g
     id="g17" /><g
     id="g19" /><g
     id="g21" /><g
     id="g23" /><g
     id="g25" /><g
     id="g27" /><g
     id="g29" /><g
     id="g31" /><g
     id="g33" /><g
     id="g35" /><g
     id="g37" /><g
     id="g39" /><g
     id="g41" /></svg>