<?xml version="1.0" encoding="UTF-8" standalone="no"?>
<!-- Generator: Adobe Illustrator 18.0.0, SVG Export Plug-In . SVG Version: 6.00 Build 0)  -->

<svg
   xmlns:dc="http://purl.org/dc/elements/1.1/"
   xmlns:cc="http://creativecommons.org/ns#"
   xmlns:rdf="http://www.w3.org/1999/02/22-rdf-syntax-ns#"
   xmlns:svg="http://www.w3.org/2000/svg"
   xmlns="http://www.w3.org/2000/svg"
   xmlns:sodipodi="http://sodipodi.sourceforge.net/DTD/sodipodi-0.dtd"
   xmlns:inkscape="http://www.inkscape.org/namespaces/inkscape"
   version="1.1"
   id="Capa_1"
   x="0px"
   y="0px"
   viewBox="0 0 57.948 57.948"
   style="enable-background:new 0 0 57.948 57.948;"
   xml:space="preserve"
   inkscape:version="0.48.4 r9939"
   width="100%"
   height="100%"
   sodipodi:docname="fishing.svg"><metadata
     id="metadata39"><rdf:RDF><cc:Work
         rdf:about=""><dc:format>image/svg+xml</dc:format><dc:type
           rdf:resource="http://purl.org/dc/dcmitype/StillImage" /><dc:title /></cc:Work></rdf:RDF></metadata><defs
     id="defs37" /><sodipodi:namedview
     pagecolor="#ffffff"
     bordercolor="#666666"
     borderopacity="1"
     objecttolerance="10"
     gridtolerance="10"
     guidetolerance="10"
     inkscape:pageopacity="0"
     inkscape:pageshadow="2"
     inkscape:window-width="741"
     inkscape:window-height="480"
     id="namedview35"
     showgrid="false"
     inkscape:zoom="4.0726168"
     inkscape:cx="-12.031576"
     inkscape:cy="28.974"
     inkscape:window-x="0"
     inkscape:window-y="0"
     inkscape:window-maximized="0"
     inkscape:current-layer="Capa_1" /><path
     style="fill:#e08d1b;fill-opacity:1"
     d="M43.925,30.189c-1.23-0.403-2.586,0.032-3.353,1.08l-7.562,10.334  c-0.979,1.337-0.688,3.214,0.649,4.192c1.336,0.977,3.215,0.688,4.192-0.649l2.141-2.925v1.272c0,4.661-3.793,8.454-8.454,8.454  c-4.662,0-8.455-3.793-8.455-8.454V15.679c3.001-1.197,5.13-4.127,5.13-7.549c0-4.482-3.647-8.13-8.13-8.13s-8.13,3.647-8.13,8.13  c0,3.422,2.129,6.352,5.13,7.549v27.815c0,7.97,6.484,14.454,14.455,14.454c7.97,0,14.454-6.484,14.454-14.454V33.041  C45.994,31.743,45.159,30.593,43.925,30.189z M20.084,6c1.175,0,2.13,0.955,2.13,2.13s-0.955,2.13-2.13,2.13s-2.13-0.955-2.13-2.13  S18.91,6,20.084,6z"
     id="path3" /><g
     id="g5" /><g
     id="g7" /><g
     id="g9" /><g
     id="g11" /><g
     id="g13" /><g
     id="g15" /><g
     id="g17" /><g
     id="g19" /><g
     id="g21" /><g
     id="g23" /><g
     id="g25" /><g
     id="g27" /><g
     id="g29" /><g
     id="g31" /><g
     id="g33" /></svg>