<?xml version="1.0" encoding="iso-8859-1"?>
<!-- Generator: Adobe Illustrator 18.0.0, SVG Export Plug-In . SVG Version: 6.00 Build 0)  -->
<!DOCTYPE svg PUBLIC "-//W3C//DTD SVG 1.1//EN" "http://www.w3.org/Graphics/SVG/1.1/DTD/svg11.dtd">
<svg version="1.1" id="Capa_1" xmlns="http://www.w3.org/2000/svg" xmlns:xlink="http://www.w3.org/1999/xlink" x="0px" y="0px"
	 viewBox="0 0 57.948 57.948" style="enable-background:new 0 0 57.948 57.948;" xml:space="preserve">
<path style="fill:#231F20;" d="M43.925,30.189c-1.23-0.403-2.586,0.032-3.353,1.08l-7.562,10.334
	c-0.979,1.337-0.688,3.214,0.649,4.192c1.336,0.977,3.215,0.688,4.192-0.649l2.141-2.925v1.272c0,4.661-3.793,8.454-8.454,8.454
	c-4.662,0-8.455-3.793-8.455-8.454V15.679c3.001-1.197,5.13-4.127,5.13-7.549c0-4.482-3.647-8.13-8.13-8.13s-8.13,3.647-8.13,8.13
	c0,3.422,2.129,6.352,5.13,7.549v27.815c0,7.97,6.484,14.454,14.455,14.454c7.97,0,14.454-6.484,14.454-14.454V33.041
	C45.994,31.743,45.159,30.593,43.925,30.189z M20.084,6c1.175,0,2.13,0.955,2.13,2.13s-0.955,2.13-2.13,2.13s-2.13-0.955-2.13-2.13
	S18.91,6,20.084,6z"/>
<g>
</g>
<g>
</g>
<g>
</g>
<g>
</g>
<g>
</g>
<g>
</g>
<g>
</g>
<g>
</g>
<g>
</g>
<g>
</g>
<g>
</g>
<g>
</g>
<g>
</g>
<g>
</g>
<g>
</g>
</svg>
